<?xml version="1.0" standalone="no"?>
<!DOCTYPE svg PUBLIC "-//W3C//DTD SVG 20010904//EN"
 "http://www.w3.org/TR/2001/REC-SVG-20010904/DTD/svg10.dtd">
<svg version="1.0" xmlns="http://www.w3.org/2000/svg"
 width="512.000000pt" height="512.000000pt" viewBox="0 0 512.000000 512.000000"
 preserveAspectRatio="xMidYMid meet">

<g transform="translate(0.000000,512.000000) scale(0.100000,-0.100000)"
fill="#db4040" stroke="none">
<path stroke="#000000" stroke-width="50pt" d="M2460 4403 l-1 -438 -295 -200 -296 -200 346 -3 c190 -1 502 -1 693
0 l347 3 -297 200 -296 200 -1 155 0 156 285 119 c157 65 282 122 277 126 -7
8 -747 319 -757 319 -3 0 -5 -197 -5 -437z"/>
<path stroke="#000000" stroke-width="50pt" d="M1740 3245 l0 -205 820 0 820 0 0 205 0 205 -820 0 -820 0 0 -205z"/>
<path stroke="#000000" stroke-width="50pt" d="M1610 2860 l0 -70 950 0 950 0 0 70 0 70 -950 0 -950 0 0 -70z"/>
<path stroke="#000000" stroke-width="50pt" d="M1760 2530 l0 -150 33 0 c18 0 42 -6 53 -14 18 -14 19 -28 19 -235
l0 -221 -27 -27 c-20 -19 -41 -29 -75 -33 l-48 -5 -3 -782 -2 -783 215 0 215
0 0 303 c0 321 5 370 51 459 33 65 120 145 196 181 63 30 75 32 174 32 101 0
108 -1 181 -38 81 -40 152 -107 189 -179 43 -85 49 -137 49 -455 l0 -303 215
0 215 0 -2 783 -3 782 -48 5 c-34 4 -55 14 -75 33 l-27 27 0 221 c0 207 1 221
19 235 11 8 35 14 53 14 l33 0 0 150 0 150 -800 0 -800 0 0 -150z m923 -103
c50 -29 90 -84 106 -142 14 -53 14 -357 0 -388 -19 -41 -49 -47 -229 -47 -180
0 -210 6 -229 47 -14 31 -14 335 0 388 21 78 81 141 157 166 49 16 147 4 195
-24z"/>
<path stroke="#000000" stroke-width="50pt" d="M2488 2334 c-50 -27 -58 -58 -58 -224 l0 -150 130 0 130 0 0 150 c0
168 -8 198 -60 225 -37 19 -107 19 -142 -1z"/>
<path stroke="#000000" stroke-width="50pt" d="M410 2110 l0 -160 675 0 675 0 0 160 0 160 -95 0 -95 0 0 -68 c0 -40
-5 -73 -12 -80 -17 -17 -349 -17 -366 0 -7 7 -12 40 -12 80 l0 68 -95 0 -95 0
0 -68 c0 -40 -5 -73 -12 -80 -17 -17 -349 -17 -366 0 -7 7 -12 40 -12 80 l0
68 -95 0 -95 0 0 -160z"/>
<path stroke="#000000" stroke-width="50pt" d="M3360 2110 l0 -160 675 0 675 0 0 160 0 160 -95 0 -95 0 0 -68 c0
-40 -5 -73 -12 -80 -17 -17 -349 -17 -366 0 -7 7 -12 40 -12 80 l0 68 -95 0
-95 0 0 -68 c0 -40 -5 -73 -12 -80 -17 -17 -349 -17 -366 0 -7 7 -12 40 -12
80 l0 68 -95 0 -95 0 0 -160z"/>
<path stroke="#000000" stroke-width="50pt" d="M560 1065 l0 -785 525 0 525 0 0 785 0 785 -525 0 -525 0 0 -785z
m637 526 c50 -25 96 -79 112 -130 7 -25 11 -134 11 -307 0 -345 23 -314 -235
-314 -180 0 -193 1 -214 21 -22 20 -22 22 -19 314 l3 293 30 43 c36 50 67 75
121 95 51 19 139 12 191 -15z"/>
<path stroke="#000000" stroke-width="50pt" d="M1005 1488 c-50 -39 -55 -67 -55 -318 l0 -231 133 3 132 3 3 220 c3
244 -2 280 -49 319 -41 35 -123 37 -164 4z"/>
<path stroke="#000000" stroke-width="50pt" d="M3510 1065 l0 -785 525 0 525 0 0 785 0 785 -525 0 -525 0 0 -785z
m637 527 c46 -24 89 -71 110 -119 10 -25 13 -100 13 -310 0 -356 24 -323 -235
-323 -261 0 -237 -35 -233 338 l3 290 30 43 c36 50 67 75 121 95 51 19 139 12
191 -14z"/>
<path stroke="#000000" stroke-width="50pt" d="M3955 1488 c-50 -39 -55 -67 -55 -318 l0 -230 135 0 135 0 0 230 c0
251 -5 279 -55 318 -20 16 -41 22 -80 22 -39 0 -60 -6 -80 -22z"/>
<path stroke="#000000" stroke-width="50pt" d="M2491 1150 c-59 -13 -121 -51 -169 -105 -69 -79 -72 -97 -72 -452 l0
-313 310 0 310 0 0 318 0 317 -28 60 c-63 132 -208 204 -351 175z"/>
</g>
</svg>
