<?xml version="1.0" standalone="no"?>
<!DOCTYPE svg PUBLIC "-//W3C//DTD SVG 20010904//EN"
 "http://www.w3.org/TR/2001/REC-SVG-20010904/DTD/svg10.dtd">
<svg version="1.0" xmlns="http://www.w3.org/2000/svg"
 width="512.000000pt" height="512.000000pt" viewBox="0 0 512.000000 512.000000"
 preserveAspectRatio="xMidYMid meet">

<g transform="translate(0.000000,512.000000) scale(0.100000,-0.100000)"
fill="#db4040">
<path stroke="#000000" stroke-width="50pt" d="M3915 4655 l-400 -465 -3 -95 -3 -95 -1239 0 -1240 0 0 -363 0 -363
-202 -151 -203 -151 -3 224 -2 224 -149 0 -148 0 -6 -97 c-4 -54 -7 -206 -7
-339 l0 -240 -155 -115 -155 -114 0 -1257 0 -1258 2560 0 2560 0 0 2095 0
2094 -386 448 c-213 246 -394 456 -403 465 -15 16 -42 -13 -416 -447z m659
-295 c230 -266 246 -287 244 -320 l-3 -35 -500 0 -500 0 -3 33 c-3 30 11 50
149 210 279 323 351 403 359 400 4 -2 118 -131 254 -288z m-1064 -979 l0 -319
-132 -94 -132 -95 -345 258 c-217 164 -348 256 -355 250 -169 -131 -663 -494
-674 -495 -8 -1 -132 87 -277 194 l-264 195 0 213 -1 212 1090 0 1090 0 0
-319z m1310 -162 c0 -381 -3 -479 -12 -473 -7 5 -200 148 -428 319 -228 171
-420 314 -425 317 -6 4 -37 -14 -69 -38 -33 -24 -63 -44 -68 -44 -4 0 -8 90
-8 200 l0 200 505 0 505 0 0 -481z m-3425 -364 c116 -86 211 -159 213 -164 1
-5 -47 -45 -108 -91 l-110 -82 0 -744 0 -744 -545 0 -545 0 1 668 0 667 266
195 c146 107 342 252 437 322 94 70 173 128 176 128 3 0 100 -70 215 -155z
m1602 -170 l433 -325 0 -665 0 -665 -209 0 -209 0 -4 123 c-4 117 -6 127 -41
200 -175 369 -690 348 -839 -34 -16 -40 -22 -84 -26 -171 l-4 -118 -204 0
-204 0 0 668 0 667 428 322 c235 177 431 322 436 322 5 1 204 -145 443 -324z
m1390 0 l433 -325 0 -665 0 -665 -545 0 -545 0 0 740 0 740 -115 86 c-64 48
-113 90 -110 93 15 16 431 319 439 320 5 1 204 -145 443 -324z m-1767 -1397
c82 -43 80 -31 80 -540 l0 -448 -145 0 -145 0 0 442 c0 425 1 443 21 484 14
30 32 48 62 63 53 27 72 26 127 -1z m-1232 -775 l2 -213 -545 0 -545 0 0 208
c0 115 3 212 7 215 3 4 248 6 542 5 l536 -3 3 -212z m712 2 l0 -215 -205 0
-205 0 0 215 0 215 205 0 205 0 0 -215z m1328 -2 l2 -213 -210 0 -210 0 0 208
c0 115 3 212 7 216 4 3 97 5 207 4 l201 -3 3 -212z m1390 0 l2 -213 -545 0
-545 0 0 215 0 215 543 -2 542 -3 3 -212z"/>
<path stroke="#000000" stroke-width="50pt" d="M700 1710 l0 -150 150 0 150 0 0 150 0 150 -150 0 -150 0 0 -150z"/>
<path stroke="#000000" stroke-width="50pt" d="M4130 1710 l0 -150 150 0 150 0 0 150 0 150 -150 0 -150 0 0 -150z"/>
</g>
</svg>
