<?xml version="1.0" standalone="no"?>
<!DOCTYPE svg PUBLIC "-//W3C//DTD SVG 20010904//EN"
 "http://www.w3.org/TR/2001/REC-SVG-20010904/DTD/svg10.dtd">
<svg version="1.0" xmlns="http://www.w3.org/2000/svg"
 width="512.000000pt" height="512.000000pt" viewBox="0 0 512.000000 512.000000"
 preserveAspectRatio="xMidYMid meet">

<g transform="translate(0.000000,512.000000) scale(0.100000,-0.100000)"
fill="#db4040">
<path stroke="#fff" stroke-width="150pt" d="M2360 4789 c-731 -83 -1352 -611 -1545 -1314 -52 -189 -69 -336 -62
-533 6 -184 24 -282 83 -471 153 -489 533 -1070 1083 -1656 182 -194 426 -419
496 -457 54 -30 68 -33 145 -33 135 0 165 21 456 310 528 527 887 998 1114
1460 168 343 240 613 240 904 0 851 -610 1593 -1452 1765 -169 34 -388 44
-558 25z m363 -1075 c245 -55 450 -235 537 -471 97 -267 38 -556 -157 -763
-105 -112 -228 -185 -373 -221 -80 -20 -278 -17 -360 5 -137 37 -259 113 -363
227 -143 154 -215 378 -187 585 41 311 263 561 565 635 90 23 245 24 338 3z"/>
</g>
</svg>
