<?xml version="1.0" standalone="no"?>
<!DOCTYPE svg PUBLIC "-//W3C//DTD SVG 20010904//EN"
 "http://www.w3.org/TR/2001/REC-SVG-20010904/DTD/svg10.dtd">
<svg version="1.0" xmlns="http://www.w3.org/2000/svg"
 width="512.000000pt" height="512.000000pt" viewBox="0 0 512.000000 512.000000"
 preserveAspectRatio="xMidYMid meet">

<g transform="translate(0.000000,512.000000) scale(0.100000,-0.100000)"
fill="#db4040" stroke="none">
<path stroke="#000000" stroke-width="50pt" d="M56 4420 c-14 -13 -16 -60 -16 -360 l0 -345 86 -134 85 -134 -10
-248 c-6 -136 -14 -281 -17 -320 l-6 -73 -69 0 c-121 0 -109 121 -109 -1063 0
-909 2 -1025 16 -1045 l15 -22 2529 0 2529 0 15 22 c14 20 16 136 16 1045 0
1184 12 1063 -109 1063 l-69 0 -6 73 c-3 39 -11 184 -17 320 l-10 248 85 134
86 134 0 345 c0 300 -2 347 -16 360 -12 13 -39 16 -128 16 -145 0 -146 -1
-146 -128 l0 -92 -60 0 -60 0 0 81 c0 77 -10 115 -34 131 -6 4 -99 8 -207 8
-239 0 -229 6 -229 -128 l0 -92 -55 0 -55 0 0 88 c0 138 10 132 -235 132 -245
0 -235 6 -235 -132 l0 -88 -60 0 -60 0 0 88 c0 129 -3 132 -145 132 -121 0
-139 -6 -150 -53 -3 -12 -5 -166 -3 -342 l3 -320 87 -137 87 -137 -14 -298
c-8 -164 -15 -308 -15 -320 0 -13 -6 -23 -13 -23 -8 0 -21 -8 -30 -18 -13 -15
-17 -39 -17 -115 l0 -97 -70 0 -70 0 0 95 c0 141 12 135 -263 135 -272 0 -257
8 -257 -133 l0 -97 -70 0 -70 0 0 98 c0 140 15 132 -258 132 -274 0 -262 6
-262 -135 l0 -95 -70 0 -70 0 0 98 c0 83 -3 102 -18 115 -10 10 -24 17 -30 17
-7 0 -12 10 -12 23 0 12 -7 156 -15 320 l-14 298 87 137 87 137 3 320 c2 176
0 330 -3 342 -11 47 -29 53 -150 53 -142 0 -145 -3 -145 -132 l0 -88 -60 0
-60 0 0 88 c0 138 10 132 -235 132 -245 0 -235 6 -235 -132 l0 -88 -55 0 -55
0 0 93 c0 132 10 127 -231 127 -107 0 -199 -4 -205 -8 -24 -16 -34 -54 -34
-131 l0 -81 -60 0 -60 0 0 93 c0 126 -2 127 -148 127 -87 0 -114 -3 -126 -16z
m154 -196 c0 -131 -4 -128 186 -128 187 0 184 -2 184 132 l0 88 110 0 110 0 0
-92 c0 -130 -2 -128 174 -128 78 0 146 4 153 8 21 13 33 62 33 138 l0 74 105
0 105 0 0 -74 c0 -76 12 -125 33 -138 17 -11 299 -9 317 2 11 7 16 35 20 107
5 92 6 98 28 101 l22 3 0 -255 0 -256 -815 0 -815 0 0 255 0 255 25 0 c25 0
25 -1 25 -92z m3170 -11 c4 -72 9 -100 20 -107 18 -11 300 -13 317 -2 21 13
33 62 33 138 l0 74 105 0 105 0 0 -74 c0 -76 12 -125 33 -138 7 -4 75 -8 151
-8 178 0 176 -2 176 127 l0 93 110 0 110 0 0 -88 c0 -134 -3 -132 182 -132
192 0 188 -3 188 127 0 93 0 93 25 93 l25 0 0 -255 0 -255 -815 0 -815 0 0
256 0 255 23 -3 c21 -3 22 -9 27 -101z m-1688 -612 l-47 -75 -670 0 -670 1
-42 68 c-24 38 -43 71 -43 75 0 3 342 6 760 6 l759 0 -47 -75z m3208 69 c0 -4
-19 -37 -42 -75 l-43 -68 -670 -1 -670 0 -47 75 -47 75 759 0 c418 0 760 -3
760 -6z m-3279 -301 c0 -21 6 -153 13 -293 7 -140 11 -258 9 -262 -3 -5 -68
-8 -147 -8 -180 0 -179 1 -184 -136 l-4 -94 -64 0 -64 0 0 86 c0 81 -10 120
-34 136 -6 4 -110 8 -230 8 -271 0 -256 8 -256 -132 l0 -98 -70 0 -70 0 0 95
c0 127 -7 135 -125 135 l-85 0 0 53 c0 80 21 520 25 535 4 9 141 12 645 12
l640 0 1 -37z m3170 -78 c4 -60 10 -194 14 -297 l8 -188 -87 0 c-119 0 -126
-8 -126 -135 l0 -95 -70 0 -70 0 0 97 c0 141 15 133 -254 133 -122 0 -226 -4
-232 -8 -24 -16 -34 -55 -34 -136 l0 -86 -64 0 -64 0 -4 94 c-5 137 -4 136
-184 136 -79 0 -144 3 -147 8 -2 4 2 122 9 262 7 140 13 272 13 293 l1 37 643
-2 642 -3 6 -110z m-4391 -715 c5 -99 6 -105 30 -117 33 -17 282 -18 313 -2
34 18 37 28 37 132 l0 97 134 0 134 0 4 -100 c4 -139 -1 -135 194 -135 195 0
194 -1 194 141 l0 94 135 0 135 0 0 -99 c0 -96 1 -100 27 -121 26 -20 37 -21
175 -18 186 4 182 1 186 138 l4 100 134 0 134 0 0 -97 c0 -104 3 -114 37 -132
29 -15 277 -15 306 0 34 18 37 28 37 132 l0 97 134 0 134 0 4 -100 c4 -137 0
-134 186 -138 138 -3 149 -2 175 18 26 21 27 25 27 121 l0 99 135 0 135 0 0
-94 c0 -142 -1 -141 194 -141 195 0 190 -4 194 135 l4 100 134 0 134 0 0 -97
c0 -104 3 -114 37 -132 31 -16 280 -15 313 2 24 12 25 18 30 117 l5 105 135 0
135 0 3 -942 2 -943 -859 0 -859 0 -5 358 c-4 329 -6 363 -26 430 -80 273
-281 460 -553 516 -98 20 -178 20 -276 0 -272 -56 -473 -243 -553 -516 -20
-67 -22 -101 -26 -430 l-5 -358 -859 0 -859 0 0 938 c0 516 3 942 7 946 4 3
66 5 137 4 l131 -3 5 -105z m2295 -602 c28 -5 84 -26 125 -46 99 -46 221 -166
268 -263 57 -118 62 -158 62 -531 l0 -338 -40 0 -40 0 0 338 c0 374 -4 409
-62 511 -105 184 -315 290 -520 261 -194 -28 -374 -187 -423 -375 -12 -48 -15
-125 -15 -397 l0 -338 -40 0 -40 0 0 338 c0 373 5 414 63 531 39 79 143 193
219 239 133 79 284 104 443 70z m25 -224 c117 -55 196 -157 220 -284 5 -29 10
-192 10 -361 l0 -309 -390 0 -390 0 0 309 c0 169 5 332 10 361 28 148 126 257
275 307 24 8 72 12 120 10 65 -3 94 -9 145 -33z"/>
<path stroke="#000000" stroke-width="50pt" d="M1137 3972 c-22 -24 -21 -65 1 -85 28 -26 182 -24 205 1 22 24 21 65
-1 85 -28 26 -182 24 -205 -1z"/>
<path stroke="#000000" stroke-width="50pt" d="M4227 3982 c-22 -24 -21 -65 1 -85 28 -26 182 -24 205 1 21 23 22 66
1 86 -24 25 -185 23 -207 -2z"/>
<path stroke="#000000" stroke-width="50pt" d="M926 3330 c-41 -13 -94 -68 -106 -110 -5 -19 -10 -84 -10 -143 0
-103 8 -142 34 -159 6 -4 66 -8 134 -8 165 0 162 -3 162 167 0 108 -3 133 -21
169 -33 69 -120 107 -193 84z m84 -140 c6 -11 10 -51 8 -88 l-3 -67 -37 -3
-38 -3 0 84 c0 46 3 87 7 90 14 14 53 6 63 -13z"/>
<path stroke="#000000" stroke-width="50pt" d="M427 3262 c-21 -23 -22 -66 -1 -86 24 -25 185 -23 207 2 22 24 21 65
-1 85 -28 26 -182 24 -205 -1z"/>
<path stroke="#000000" stroke-width="50pt" d="M1285 3045 c-14 -13 -25 -31 -25 -40 0 -9 11 -27 25 -40 21 -22 33
-25 98 -25 84 0 127 22 127 65 0 43 -43 65 -127 65 -65 0 -77 -3 -98 -25z"/>
<path stroke="#000000" stroke-width="50pt" d="M4099 3330 c-46 -13 -78 -41 -99 -84 -17 -36 -20 -62 -20 -169 0
-170 -3 -167 163 -167 67 0 127 4 133 8 26 17 34 56 34 159 0 131 -10 169 -53
211 -47 45 -101 60 -158 42z m79 -213 l3 -88 -38 3 -38 3 -3 67 c-4 82 9 110
46 106 27 -3 27 -4 30 -91z"/>
<path stroke="#000000" stroke-width="50pt" d="M4480 3222 c-14 -4 -31 -20 -40 -34 -13 -25 -13 -29 6 -55 20 -26 26
-28 107 -31 76 -2 89 0 107 18 25 25 26 62 0 85 -21 19 -135 30 -180 17z"/>
<path stroke="#000000" stroke-width="50pt" d="M465 2286 c-68 -42 -79 -72 -83 -223 -4 -130 -4 -132 22 -157 24 -25
30 -26 139 -26 100 0 117 3 141 21 26 20 26 22 26 151 0 100 -4 138 -16 165
-41 84 -150 118 -229 69z m109 -118 c11 -15 16 -45 16 -90 l0 -68 -40 0 -40 0
0 80 c0 65 3 81 18 89 24 15 29 14 46 -11z"/>
<path stroke="#000000" stroke-width="50pt" d="M1592 2293 c-18 -9 -45 -32 -60 -51 -26 -33 -27 -42 -30 -165 -2 -71
-1 -139 2 -151 9 -35 48 -46 165 -46 157 0 156 -1 156 177 0 125 -2 141 -22
173 -44 71 -139 99 -211 63z m89 -113 c16 -9 19 -22 19 -90 l0 -80 -40 0 -40
0 0 68 c0 45 5 75 16 90 17 25 19 26 45 12z"/>
<path stroke="#000000" stroke-width="50pt" d="M3375 2286 c-70 -43 -80 -71 -80 -229 0 -179 -1 -177 157 -177 104 0
143 8 160 34 4 6 8 69 8 139 0 99 -4 137 -16 164 -41 84 -150 118 -229 69z
m109 -118 c11 -15 16 -45 16 -90 l0 -68 -40 0 -40 0 0 80 c0 65 3 81 18 89 24
15 29 14 46 -11z"/>
<path stroke="#000000" stroke-width="50pt" d="M4520 2303 c-35 -13 -72 -47 -90 -83 -17 -33 -20 -59 -20 -169 0
-128 0 -130 26 -150 24 -18 41 -21 141 -21 109 0 115 1 139 26 26 25 26 27 22
157 -3 115 -6 137 -25 167 -38 62 -130 96 -193 73z m71 -123 c16 -9 19 -22 19
-90 l0 -80 -40 0 -40 0 0 68 c0 45 5 75 16 90 17 25 19 26 45 12z"/>
<path stroke="#000000" stroke-width="50pt" d="M1995 2265 c-30 -29 -31 -45 -6 -76 15 -19 30 -24 84 -27 119 -8 167
12 167 68 0 46 -30 60 -133 60 -80 0 -90 -2 -112 -25z"/>
<path stroke="#000000" stroke-width="50pt" d="M3877 2042 c-22 -24 -21 -65 1 -85 15 -13 39 -17 113 -17 52 0 99 4
105 8 37 24 36 91 -1 106 -9 3 -58 6 -109 6 -77 0 -96 -3 -109 -18z"/>
<path stroke="#000000" stroke-width="50pt" d="M537 1522 c-24 -26 -21 -68 5 -86 31 -22 200 -23 222 -1 25 25 29 54
12 80 -16 24 -21 25 -120 25 -87 0 -105 -3 -119 -18z"/>
<path stroke="#000000" stroke-width="50pt" d="M4560 1392 c-27 -22 -30 -67 -6 -90 10 -10 39 -18 81 -20 117 -8 165
12 165 68 0 46 -30 60 -131 60 -69 0 -91 -4 -109 -18z"/>
<path stroke="#000000" stroke-width="50pt" d="M672 1358 c-22 -28 -22 -55 -1 -81 19 -26 25 -27 113 -27 106 0 136
13 136 60 0 51 -20 60 -134 60 -71 0 -107 -4 -114 -12z"/>
<path stroke="#000000" stroke-width="50pt" d="M4099 1159 c-15 -15 -19 -28 -14 -47 10 -44 31 -52 135 -52 106 0
130 11 130 62 0 46 -27 58 -133 58 -85 0 -100 -3 -118 -21z"/>
<path stroke="#000000" stroke-width="50pt" d="M3907 1020 c-26 -21 -35 -53 -19 -76 16 -24 54 -34 130 -34 65 0 84
4 106 21 31 25 34 59 5 85 -17 15 -40 20 -108 22 -76 3 -89 1 -114 -18z"/>
</g>
</svg>
