<?xml version="1.0" standalone="no"?>
<!DOCTYPE svg PUBLIC "-//W3C//DTD SVG 20010904//EN"
 "http://www.w3.org/TR/2001/REC-SVG-20010904/DTD/svg10.dtd">
<svg version="1.0" xmlns="http://www.w3.org/2000/svg"
 width="512.000000pt" height="512.000000pt" viewBox="0 0 512.000000 512.000000"
 preserveAspectRatio="xMidYMid meet">

<g transform="translate(0.000000,512.000000) scale(0.100000,-0.100000)"
fill="#db4040" stroke="none">
<path stroke="#000000" stroke-width="50pt" d="M2130 3880 l-400 -360 -159 0 c-137 0 -162 -2 -180 -17 -15 -13 -44
-97 -106 -303 -48 -157 -100 -329 -116 -382 l-30 -98 -223 0 c-198 0 -226 -2
-245 -17 -17 -14 -68 -180 -237 -773 -118 -415 -224 -785 -235 -823 l-20 -67
-63 0 c-55 0 -67 -3 -90 -26 -34 -35 -34 -73 0 -108 l27 -26 2506 0 c2505 0
2507 0 2529 20 28 27 37 62 21 92 -20 38 -41 47 -106 48 l-62 0 -20 67 c-11
38 -117 408 -235 823 -169 593 -220 759 -237 773 -19 15 -47 17 -245 17 l-223
0 -25 83 c-14 45 -66 217 -115 382 -67 223 -96 304 -112 318 -18 15 -44 17
-180 17 l-159 0 -400 360 c-339 305 -404 360 -430 360 -26 0 -91 -55 -430
-360z m728 -95 l289 -260 -107 -3 c-101 -2 -110 -4 -134 -29 -34 -33 -34 -73
0 -107 l26 -26 345 -2 345 -3 94 -310 c51 -170 94 -313 94 -317 0 -5 -35 -8
-79 -8 -71 0 -81 -2 -105 -26 -34 -35 -34 -73 0 -108 l27 -26 343 0 343 0 20
-67 c34 -116 399 -1396 406 -1426 l7 -28 -117 3 -118 3 -34 100 c-18 54 -40
106 -48 115 -10 9 -42 17 -87 20 l-71 5 -34 100 c-19 59 -42 107 -54 118 -18
14 -43 17 -169 17 -126 0 -151 -3 -169 -17 -12 -11 -35 -59 -54 -118 l-34
-100 -71 -5 c-45 -3 -77 -11 -87 -20 -8 -9 -30 -61 -48 -115 l-34 -100 -131
-3 -132 -3 0 440 0 439 25 6 c18 5 51 45 120 149 104 155 112 181 70 222 l-24
25 -911 0 -911 0 -24 -25 c-42 -41 -34 -67 70 -222 69 -104 102 -144 120 -149
l25 -6 0 -439 0 -439 -200 0 -200 0 0 40 c0 27 4 40 14 40 8 0 24 8 36 18 18
14 29 55 66 232 24 118 44 225 44 238 0 13 -11 34 -25 47 l-24 25 -391 0 -391
0 -24 -25 c-14 -13 -25 -34 -25 -47 0 -13 20 -120 44 -238 37 -177 48 -218 66
-232 12 -10 28 -18 36 -18 10 0 14 -13 14 -40 l0 -40 -266 0 -266 0 7 28 c7
29 372 1310 406 1425 l20 67 302 0 c222 1 306 4 318 13 67 51 33 147 -53 147
-21 0 -38 3 -38 8 0 4 43 147 94 317 l94 310 338 2 c230 2 346 7 361 14 33 17
48 62 34 98 -18 41 -44 51 -157 53 l-101 3 291 262 c160 144 294 261 298 260
4 -1 137 -119 296 -262z m406 -1665 l-27 -40 -677 0 -677 0 -27 40 -26 40 730
0 730 0 -26 -40z m-1184 -640 l0 -440 -40 0 -40 0 0 440 0 440 40 0 40 0 0
-440z m800 0 l0 -440 -320 0 -320 0 0 440 0 440 320 0 320 0 0 -440z m240 0
l0 -440 -40 0 -40 0 0 440 0 440 40 0 40 0 0 -440z m-1703 13 c-3 -16 -13 -70
-23 -120 l-18 -93 -216 0 -216 0 -18 93 c-10 50 -20 104 -23 120 l-5 27 262 0
263 0 -6 -27z m2699 -175 l13 -38 -89 0 c-67 0 -88 3 -85 13 26 73 20 68 86
65 62 -3 62 -3 75 -40z m-2836 -238 l0 -40 -120 0 -120 0 0 40 0 40 120 0 120
0 0 -40z m2596 -2 l13 -38 -89 0 c-67 0 -88 3 -85 13 26 73 20 68 86 65 62 -3
62 -3 75 -40z m480 0 l13 -38 -89 0 c-67 0 -88 3 -85 13 26 73 20 68 86 65 62
-3 62 -3 75 -40z"/>
</g>
</svg>
