<?xml version="1.0" standalone="no"?>
<!DOCTYPE svg PUBLIC "-//W3C//DTD SVG 20010904//EN"
 "http://www.w3.org/TR/2001/REC-SVG-20010904/DTD/svg10.dtd">
<svg version="1.0" xmlns="http://www.w3.org/2000/svg"
 width="512.000000pt" height="512.000000pt" viewBox="0 0 512.000000 512.000000"
 preserveAspectRatio="xMidYMid meet">

<g transform="translate(0.000000,512.000000) scale(0.100000,-0.100000)"
fill="#db4040" stroke="none">
<path stroke="#000000" stroke-width="50pt" d="M970 4570 l-965 -549 -3 -360 -2 -361 150 0 150 0 0 -150 0 -150 75
0 75 0 0 -225 0 -225 75 0 75 0 0 225 0 225 300 0 300 0 0 -975 0 -975 -300 0
-300 0 1 108 0 107 78 155 79 155 -79 157 -79 158 0 255 0 255 -75 0 -75 0 0
-270 0 -270 71 -142 71 -143 -71 -142 -71 -143 0 -120 0 -120 -75 0 -75 0 0
-150 0 -150 -75 0 -75 0 0 -150 0 -150 -75 0 -75 0 0 -225 0 -225 2560 0 2560
0 0 225 0 225 -75 0 -75 0 0 150 0 150 -75 0 -75 0 0 150 0 150 -75 0 -75 0 0
150 0 150 -75 0 -75 0 0 -150 0 -150 -300 0 -300 0 0 720 c0 396 3 720 6 720
3 0 70 -36 150 -81 l144 -81 0 -132 0 -131 150 -150 150 -150 0 -132 0 -133
75 0 75 0 0 168 0 167 -150 150 -150 150 0 140 0 141 -292 164 c-160 91 -295
167 -300 168 -4 2 -8 -379 -8 -847 l0 -851 -75 0 -75 0 0 -150 0 -150 -230 0
-230 0 0 150 0 150 -75 0 -75 0 0 975 0 975 75 0 75 0 0 150 0 150 225 0 225
0 0 359 0 359 -276 172 -275 172 -235 42 c-129 24 -236 45 -238 47 -2 2 -23
83 -46 179 -33 135 -48 182 -69 207 -14 18 -75 88 -136 157 l-110 125 -145 -1
-145 0 -965 -548z m1275 298 c50 -56 96 -110 104 -121 8 -11 35 -109 61 -219
26 -109 50 -202 54 -205 3 -4 126 -28 273 -55 l267 -49 135 -84 135 -85 -1454
0 c-799 0 -1451 2 -1449 4 4 4 247 143 591 337 l86 49 209 -2 208 -3 60 -117
60 -118 98 0 97 0 0 74 0 75 -52 3 -53 3 -58 113 -58 112 -126 0 c-70 0 -123
3 -119 8 4 4 155 91 334 194 l327 186 90 1 90 1 90 -102z m1215 -1193 l0 -225
-1655 0 -1655 0 0 225 0 225 1655 0 1655 0 0 -225z m-2110 -450 l0 -75 -450 0
-450 0 0 75 0 75 450 0 450 0 0 -75z m610 -75 l0 -150 75 0 75 0 0 -975 0
-975 -75 0 -75 0 0 -150 0 -150 -230 0 -230 0 0 150 0 150 -75 0 -75 0 0 975
0 975 75 0 75 0 0 150 0 150 230 0 230 0 0 -150z m1050 75 l0 -75 -450 0 -450
0 0 75 0 75 450 0 450 0 0 -75z m-150 -1200 l0 -975 -300 0 -300 0 0 975 0
975 300 0 300 0 0 -975z m-1510 -1200 l0 -75 -450 0 -450 0 0 75 0 75 450 0
450 0 0 -75z m1660 0 l0 -75 -450 0 -450 0 0 75 0 75 450 0 450 0 0 -75z
m1660 0 l0 -75 -450 0 -450 0 0 75 0 75 450 0 450 0 0 -75z m150 -300 l0 -75
-1505 0 -1505 0 0 -75 0 -75 1580 0 1580 0 0 -75 0 -75 -2410 0 -2410 0 0 75
0 75 755 0 755 0 0 75 0 75 -680 0 -680 0 0 75 0 75 2260 0 2260 0 0 -75z"/>
<path stroke="#000000" stroke-width="50pt" d="M1960 4745 l0 -75 75 0 75 0 0 75 0 75 -75 0 -75 0 0 -75z"/>
<path stroke="#000000" stroke-width="50pt" d="M1930 4275 l0 -75 75 0 75 0 0 75 0 75 -75 0 -75 0 0 -75z"/>
<path stroke="#000000" stroke-width="50pt" d="M2560 2775 l0 -75 75 0 75 0 0 75 0 75 -75 0 -75 0 0 -75z"/>
<path stroke="#000000" stroke-width="50pt" d="M900 2775 l0 -75 75 0 75 0 0 75 0 75 -75 0 -75 0 0 -75z"/>
<path stroke="#000000" stroke-width="50pt" d="M4220 1650 l0 -80 75 0 75 0 0 80 0 80 -75 0 -75 0 0 -80z"/>
</g>
</svg>
