<?xml version="1.0" standalone="no"?>
<!DOCTYPE svg PUBLIC "-//W3C//DTD SVG 20010904//EN"
 "http://www.w3.org/TR/2001/REC-SVG-20010904/DTD/svg10.dtd">
<svg version="1.0" xmlns="http://www.w3.org/2000/svg"
 width="512.000000pt" height="512.000000pt" viewBox="0 0 512.000000 512.000000"
 preserveAspectRatio="xMidYMid meet">

<g transform="translate(0.000000,512.000000) scale(0.100000,-0.100000)"
fill="#db4040" stroke="none">
<path stroke="#000000" stroke-width="50pt" d="M1323 4809 c-18 -3 -47 -18 -65 -32 -127 -97 -1226 -1065 -1240
-1090 -50 -93 24 -217 130 -217 39 0 86 22 125 58 l27 26 0 -427 0 -427 -99 0
c-85 0 -102 -3 -132 -23 -74 -49 -69 35 -67 -1184 l3 -1092 21 -28 c12 -15 36
-37 55 -48 34 -20 49 -20 2484 -17 2270 3 2452 5 2479 20 16 9 38 30 50 45
l21 28 3 1457 c2 1372 1 1459 -15 1492 -10 19 -33 45 -52 57 -30 20 -47 23
-137 23 l-104 0 0 170 0 170 49 0 c117 0 190 129 126 226 -15 23 -809 624
-862 652 -28 15 -98 15 -126 1 -11 -7 -207 -150 -434 -320 -262 -196 -420
-320 -433 -341 -60 -99 14 -223 132 -221 l48 1 0 -258 0 -257 -87 -23 c-151
-39 -450 -140 -630 -211 -94 -38 -176 -69 -182 -69 -8 0 -11 94 -11 300 0 165
4 300 8 300 5 0 17 -9 28 -21 67 -75 193 -67 243 14 26 43 28 121 3 158 -9 15
-127 122 -262 239 -719 624 -964 836 -982 848 -29 21 -78 29 -115 21z m407
-667 l365 -318 3 -681 2 -680 -122 32 c-68 17 -135 35 -150 39 l-27 6 -3 373
-3 372 -32 66 c-58 118 -146 196 -269 240 -48 17 -77 20 -159 17 -89 -3 -108
-8 -170 -38 -139 -67 -235 -199 -255 -350 -5 -41 -10 -179 -10 -306 l0 -230
-62 4 c-35 2 -101 7 -148 10 l-85 7 -3 552 -2 553 222 194 c123 106 291 252
373 324 83 72 155 131 160 131 6 0 174 -143 375 -317z m2563 9 l217 -161 0
-279 0 -279 -82 -6 c-46 -4 -113 -9 -150 -12 l-68 -6 0 191 c0 140 -4 200 -14
224 -49 116 -211 120 -268 6 -15 -29 -18 -64 -18 -245 l0 -211 -137 -23 c-76
-12 -143 -25 -150 -27 -10 -4 -13 61 -13 330 l0 336 222 166 c123 91 228 163
234 161 6 -2 108 -77 227 -165z m-2867 -857 c18 -9 43 -31 54 -49 19 -31 20
-49 20 -337 l0 -305 -102 17 c-57 10 -125 21 -151 24 l-48 7 3 277 c3 262 4
279 24 310 44 69 125 92 200 56z m3394 -1315 l0 -1151 -147 140 c-278 263
-512 455 -793 650 -145 100 -443 284 -526 325 l-44 21 0 96 c0 124 18 179 79
240 45 45 56 50 303 133 165 55 276 98 310 120 97 61 172 168 197 278 6 24 11
96 11 161 l0 116 88 7 c48 3 98 7 112 9 14 2 112 4 218 5 l192 1 0 -1151z
m-910 1005 c0 -100 -17 -146 -64 -175 -17 -10 -140 -55 -273 -100 -261 -87
-319 -116 -406 -205 -82 -83 -130 -182 -151 -310 l-11 -71 -150 65 c-82 36
-217 91 -300 122 l-150 56 -3 122 -3 122 78 36 c245 112 622 243 901 314 147
37 457 102 520 109 9 1 12 -22 12 -85z m-3018 -600 l57 -6 -44 -54 c-125 -154
-178 -343 -145 -520 63 -340 296 -626 718 -882 110 -66 404 -213 547 -273 44
-18 84 -37 90 -41 5 -4 -401 -8 -903 -8 l-912 0 0 901 0 902 268 -7 c147 -3
293 -9 324 -12z m625 -90 c1128 -225 2157 -766 2956 -1553 70 -69 127 -129
127 -133 0 -5 -376 -8 -835 -8 l-835 0 -153 64 c-83 35 -243 101 -355 145
-675 272 -1010 469 -1203 709 -97 121 -169 290 -169 399 0 131 108 275 277
370 32 18 59 33 60 33 1 0 59 -12 130 -26z"/>
</g>
</svg>
